<mxfile host="app.diagrams.net" modified="2023-04-24T21:00:56.402Z" agent="Mozilla/5.0 (Macintosh; Intel Mac OS X 10_15_7) AppleWebKit/537.36 (KHTML, like Gecko) Chrome/111.0.0.0 Safari/537.36" etag="7ehgKJ65GbWzWOdh1rsu" version="21.2.1" type="github">
  <diagram name="Page-1" id="Gpa69h0OlXSYj1VUujG5">
    <mxGraphModel dx="673" dy="550" grid="1" gridSize="10" guides="1" tooltips="1" connect="1" arrows="1" fold="1" page="1" pageScale="1" pageWidth="827" pageHeight="1169" math="0" shadow="0">
      <root>
        <mxCell id="0" />
        <mxCell id="1" parent="0" />
        <mxCell id="bXz8Kt1zfMahWN2BsK42-12" value="&lt;font style=&quot;font-size: 8px;&quot;&gt;parametri&lt;/font&gt;" style="rounded=0;whiteSpace=wrap;html=1;fillColor=#fff2cc;strokeColor=#d6b656;" vertex="1" parent="1">
          <mxGeometry x="121" y="320" width="60" height="20" as="geometry" />
        </mxCell>
        <mxCell id="bXz8Kt1zfMahWN2BsK42-13" value="&lt;font style=&quot;font-size: 7px;&quot;&gt;indirizzo ritorno&lt;/font&gt;" style="rounded=0;whiteSpace=wrap;html=1;fillColor=#eeeeee;strokeColor=#36393d;" vertex="1" parent="1">
          <mxGeometry x="40" y="350" width="60" height="20" as="geometry" />
        </mxCell>
        <mxCell id="bXz8Kt1zfMahWN2BsK42-14" value="&lt;font style=&quot;font-size: 7px;&quot;&gt;catena statica&lt;/font&gt;" style="rounded=0;whiteSpace=wrap;html=1;fillColor=#e51400;fontColor=#ffffff;strokeColor=#B20000;" vertex="1" parent="1">
          <mxGeometry x="120" y="350" width="60" height="20" as="geometry" />
        </mxCell>
        <mxCell id="bXz8Kt1zfMahWN2BsK42-15" value="&lt;font style=&quot;font-size: 6px;&quot;&gt;indirizzo risultato&lt;/font&gt;" style="rounded=0;whiteSpace=wrap;html=1;fillColor=#f0a30a;fontColor=#000000;strokeColor=#BD7000;" vertex="1" parent="1">
          <mxGeometry x="120" y="380" width="60" height="20" as="geometry" />
        </mxCell>
        <mxCell id="bXz8Kt1zfMahWN2BsK42-16" value="&lt;font style=&quot;font-size: 7px;&quot;&gt;res della chiamata&lt;/font&gt;" style="rounded=0;whiteSpace=wrap;html=1;fillColor=#0050ef;fontColor=#ffffff;strokeColor=#001DBC;" vertex="1" parent="1">
          <mxGeometry x="40" y="380" width="60" height="20" as="geometry" />
        </mxCell>
        <mxCell id="bXz8Kt1zfMahWN2BsK42-17" value="&lt;font style=&quot;font-size: 7px;&quot;&gt;catena dinamica&lt;/font&gt;" style="rounded=0;whiteSpace=wrap;html=1;fillColor=#d80073;fontColor=#ffffff;strokeColor=#A50040;" vertex="1" parent="1">
          <mxGeometry x="200" y="317.5" width="60" height="25" as="geometry" />
        </mxCell>
        <mxCell id="bXz8Kt1zfMahWN2BsK42-18" value="&lt;font style=&quot;font-size: 8px;&quot;&gt;var locali&amp;nbsp;&lt;/font&gt;" style="rounded=0;whiteSpace=wrap;html=1;fillColor=#d5e8d4;strokeColor=#82b366;" vertex="1" parent="1">
          <mxGeometry x="40" y="320" width="60" height="20" as="geometry" />
        </mxCell>
        <mxCell id="bXz8Kt1zfMahWN2BsK42-19" value="&lt;font style=&quot;font-size: 8px;&quot;&gt;parametri&lt;/font&gt;" style="rounded=0;whiteSpace=wrap;html=1;fillColor=#fff2cc;strokeColor=#d6b656;" vertex="1" parent="1">
          <mxGeometry x="431" y="320" width="60" height="20" as="geometry" />
        </mxCell>
        <mxCell id="bXz8Kt1zfMahWN2BsK42-20" value="&lt;font style=&quot;font-size: 7px;&quot;&gt;indirizzo ritorno&lt;/font&gt;" style="rounded=0;whiteSpace=wrap;html=1;fillColor=#eeeeee;strokeColor=#36393d;" vertex="1" parent="1">
          <mxGeometry x="354" y="350" width="60" height="20" as="geometry" />
        </mxCell>
        <mxCell id="bXz8Kt1zfMahWN2BsK42-21" value="&lt;font style=&quot;font-size: 7px;&quot;&gt;catena statica&lt;/font&gt;" style="rounded=0;whiteSpace=wrap;html=1;fillColor=#e51400;fontColor=#ffffff;strokeColor=#B20000;" vertex="1" parent="1">
          <mxGeometry x="430" y="350" width="60" height="20" as="geometry" />
        </mxCell>
        <mxCell id="bXz8Kt1zfMahWN2BsK42-22" value="&lt;font style=&quot;font-size: 6px;&quot;&gt;indirizzo risultato&lt;/font&gt;" style="rounded=0;whiteSpace=wrap;html=1;fillColor=#f0a30a;fontColor=#000000;strokeColor=#BD7000;" vertex="1" parent="1">
          <mxGeometry x="430" y="380" width="60" height="20" as="geometry" />
        </mxCell>
        <mxCell id="bXz8Kt1zfMahWN2BsK42-23" value="&lt;font style=&quot;font-size: 7px;&quot;&gt;res della chiamata&lt;/font&gt;" style="rounded=0;whiteSpace=wrap;html=1;fillColor=#0050ef;fontColor=#ffffff;strokeColor=#001DBC;" vertex="1" parent="1">
          <mxGeometry x="354" y="380" width="60" height="20" as="geometry" />
        </mxCell>
        <mxCell id="bXz8Kt1zfMahWN2BsK42-24" value="&lt;font style=&quot;font-size: 7px;&quot;&gt;catena dinamica&lt;/font&gt;" style="rounded=0;whiteSpace=wrap;html=1;fillColor=#d80073;fontColor=#ffffff;strokeColor=#A50040;" vertex="1" parent="1">
          <mxGeometry x="510" y="317.5" width="60" height="25" as="geometry" />
        </mxCell>
        <mxCell id="bXz8Kt1zfMahWN2BsK42-25" value="&lt;font style=&quot;font-size: 8px;&quot;&gt;var locali&amp;nbsp;&lt;/font&gt;" style="rounded=0;whiteSpace=wrap;html=1;fillColor=#d5e8d4;strokeColor=#82b366;" vertex="1" parent="1">
          <mxGeometry x="354" y="320" width="60" height="20" as="geometry" />
        </mxCell>
      </root>
    </mxGraphModel>
  </diagram>
</mxfile>
